#define 9df608e7dcc844a3843a8fed84c00937GDItbQiqNfdIGsmw_width 22
#define 9df608e7dcc844a3843a8fed84c00937GDItbQiqNfdIGsmw_height 22
static char 9df608e7dcc844a3843a8fed84c00937GDItbQiqNfdIGsmw_bits[] = {
  0x06, 0x00, 0x00, 0x19, 0x00, 0x00, 0xE1, 0xC1, 0x00, 0x02, 0x2E, 0x01, 
  0x02, 0x30, 0x02, 0x04, 0x00, 0x02, 0x04, 0x00, 0x03, 0x04, 0xFF, 0x01, 
  0x84, 0x00, 0x00, 0x88, 0x10, 0x00, 0x88, 0x28, 0x00, 0x88, 0x2C, 0x00, 
  0x90, 0x42, 0x00, 0x98, 0x8C, 0x00, 0x84, 0x18, 0x01, 0x84, 0x20, 0x02, 
  0xC8, 0x40, 0x06, 0x70, 0x80, 0x09, 0x00, 0x00, 0x09, 0x00, 0x00, 0x16, 
  0x00, 0x00, 0x28, 0x00, 0x00, 0x10, };
