#define 78c8f05a687740679a0377aeb904fd09RoRlzkNGvBrecNIR_width 22
#define 78c8f05a687740679a0377aeb904fd09RoRlzkNGvBrecNIR_height 22
static char 78c8f05a687740679a0377aeb904fd09RoRlzkNGvBrecNIR_bits[] = {
  0x06, 0x00, 0x00, 0x19, 0x00, 0x00, 0xE1, 0xC1, 0x00, 0x02, 0x2E, 0x01, 
  0x02, 0x30, 0x02, 0x04, 0x00, 0x02, 0x04, 0x06, 0x03, 0x04, 0xFF, 0x01, 
  0x84, 0x00, 0x00, 0xC8, 0x10, 0x00, 0xC8, 0x28, 0x00, 0x88, 0x2C, 0x00, 
  0x90, 0x42, 0x00, 0x98, 0x4C, 0x00, 0x84, 0xB8, 0x00, 0x84, 0x40, 0x03, 
  0xC8, 0x80, 0x06, 0x70, 0x80, 0x09, 0x00, 0x00, 0x09, 0x00, 0x00, 0x16, 
  0x00, 0x00, 0x28, 0x00, 0x00, 0x10, };
